<svg width="224" height="224" viewBox="0 0 224 224" fill="none" xmlns="http://www.w3.org/2000/svg">
<rect x="0.333984" y="0.078125" width="222.991" height="222.991" rx="25" fill="#466FD0"/>
<path d="M174.02 22.8664C173.446 21.533 172.223 20.6293 170.848 20.5225C169.473 20.4157 168.176 21.123 167.492 22.3601C152.585 49.1808 135.56 56.8545 120.54 63.6246C117.86 64.8327 115.33 65.9746 112.826 67.206C98.6371 74.2056 89.8744 83.48 86.7929 94.7801C84.7694 102.196 85.2458 110.351 88.1984 119.142C88.492 120.016 87.5171 120.668 86.9289 119.958V119.958C86.021 118.862 84.6264 118.367 83.303 118.672C81.9932 118.986 80.9454 120.031 80.6162 121.414C78.8636 128.774 78.7685 135.431 78.6863 141.307C78.5436 151.494 78.4377 158.852 70.8619 166.364C69.4051 167.81 69.3722 170.252 70.7841 171.826C72.1995 173.398 74.524 173.5 75.9818 172.057C85.7402 162.381 85.8839 152.303 86.0369 141.636C86.0386 141.523 86.0402 141.41 86.0419 141.297C86.1175 136.126 91.9338 133.591 96.9675 134.777V134.777C98.4042 135.125 99.8772 134.545 100.716 133.305C101.555 132.064 101.596 130.398 100.822 129.067C93.7431 116.859 91.4013 106.106 93.8563 97.1031C96.3501 87.97 103.832 80.269 116.092 74.2262C118.484 73.0474 120.964 71.9304 123.585 70.7452C133.098 66.4555 144.065 61.5123 154.878 51.3538C160.38 46.1848 168.411 49.0414 166.077 56.2206C165.119 59.165 163.961 62.2407 162.601 65.4452C155.631 81.8745 143.288 101.782 125.92 124.622C91.6775 169.663 69.3729 183.811 50.3725 192.393C48.5254 193.229 47.7135 195.497 48.558 197.459C49.3142 199.224 51.1503 200.143 52.8537 199.709C53.0492 199.66 53.24 199.591 53.427 199.507C73.2735 190.545 96.4956 175.867 131.718 129.541C169.61 79.7128 183.445 44.8197 174.02 22.8664Z" fill="#F7D2A1"/>
<path d="M179.986 77.7912C177.978 78.01 176.552 79.9052 176.813 82.0284C176.898 82.7204 176.992 83.4304 177.091 84.1752C177.573 87.8061 178.175 92.3247 178.209 99.3419C178.345 127.877 160.392 141.209 154.887 144.617C146.62 149.73 129.942 152.147 121.925 153.307C119.413 153.67 117.755 153.912 116.823 154.149C114.864 154.648 113.703 156.737 114.232 158.812C114.695 160.629 115.309 162.322 116.064 163.881C118.531 168.973 118.657 176.092 113.45 178.303C104.943 181.916 95.7769 183.895 90.8715 184.778C88.8777 185.142 87.5867 187.135 87.9828 189.24C88.3789 191.345 90.3149 192.76 92.3062 192.401C94.9668 191.92 98.1512 191.265 101.597 190.387C112.414 187.632 125.784 182.693 133.495 174.18C134.4 173.184 134.708 171.734 134.298 170.39C133.892 169.05 132.832 168.025 131.532 167.706C127.625 166.761 124.793 164.648 122.962 161.286C122.89 161.153 122.973 160.986 123.123 160.966V160.966C132.249 159.643 149.243 157.187 158.742 151.306C175.638 140.854 185.663 121.493 185.559 99.5187C185.524 91.9802 184.883 87.1748 184.369 83.3117C184.273 82.5941 184.182 81.9114 184.1 81.2466C183.843 79.1225 182.002 77.5743 179.986 77.7912Z" fill="#F7D2A1"/>
</svg>
