<svg width="351" height="184" viewBox="0 0 351 184" fill="none" xmlns="http://www.w3.org/2000/svg">
<path d="M335.467 0.616535C336.842 0.723336 338.064 1.62782 338.639 2.96126C348.064 24.9146 334.229 59.8076 296.337 109.636C261.115 155.961 237.892 170.64 218.046 179.602C217.859 179.686 217.668 179.754 217.473 179.804C217.355 179.834 217.238 179.872 217.13 179.928C216.544 180.232 215.825 180.584 214.999 180.943C212.735 181.926 209.516 183.04 205.968 183.34C202.393 183.643 198.279 183.131 194.544 180.61C190.793 178.077 187.899 173.84 186.166 167.614C186.024 167.104 185.968 166.571 185.831 166.06C182.248 152.725 179.054 142.65 176.144 135.235C173.099 127.478 170.496 122.977 168.336 120.661C167.289 119.539 166.516 119.116 166.039 118.964C165.636 118.836 165.25 118.835 164.723 119.035C163.366 119.548 161.476 121.234 158.978 124.693C156.58 128.012 154.062 132.312 151.213 137.197C148.402 142.015 145.309 147.328 141.869 152.406C135.341 162.041 127.098 171.56 116.153 175.358C115.688 175.519 115.244 175.74 114.776 175.89C104.25 179.257 93.0754 180.742 81.8877 180.246C69.3451 179.691 57.0929 176.661 46.003 171.371C34.9129 166.082 25.2576 158.662 17.7247 149.642C10.1917 140.622 4.96557 130.222 2.41899 119.182C-0.127516 108.143 0.0674071 96.7349 2.99028 85.7708C5.91328 74.8066 11.4931 64.5549 19.3311 55.7464C27.169 46.9381 37.0733 39.7883 48.3389 34.807C58.3155 30.3957 69.1428 27.782 80.21 27.096C80.3795 27.0703 80.5542 27.057 80.7325 27.0579C80.7627 27.0581 80.793 27.0587 80.8233 27.0589C80.8353 27.0583 80.8474 27.0576 80.8594 27.057C81.0335 27.0474 81.205 27.0505 81.3731 27.0658C88.2265 27.1975 94.9553 28.8784 100.907 31.9779C108.124 35.7358 113.84 41.3929 117.262 48.1624C120.684 54.932 121.642 62.478 120.003 69.7523C118.364 77.0266 114.209 83.668 108.115 88.7533C102.022 93.8385 94.2915 97.1153 86 98.1283C77.7087 99.1411 69.2673 97.84 61.8487 94.4056C54.4299 90.971 48.4022 85.5733 44.6036 78.9632C41.4855 73.5372 39.9963 67.515 40.2422 61.473C40.3326 59.257 42.3949 57.7503 44.5938 58.0394C46.9048 58.3432 48.468 60.5103 48.4756 62.8411C48.4899 67.2713 49.6752 71.6582 51.9639 75.6409C54.9836 80.8957 59.7753 85.187 65.6729 87.9173C71.5703 90.6475 78.2809 91.6814 84.8721 90.8763C91.4633 90.0711 97.608 87.4665 102.452 83.4241C107.296 79.3816 110.6 74.1015 111.903 68.3187C113.206 62.5359 112.444 56.5371 109.724 51.1556C107.003 45.7741 102.459 41.2767 96.7227 38.2894C92.0213 35.8411 86.7101 34.5066 81.2979 34.387C81.2296 34.3855 81.1613 34.3865 81.0933 34.3934C81.0562 34.3972 81.0189 34.4004 80.9815 34.4027C70.9002 35.003 61.0353 37.3728 51.9502 41.39C41.762 45.8949 32.8051 52.3605 25.7168 60.3265C18.6287 68.2923 13.5829 77.5625 10.9395 87.4779C8.29607 97.3934 8.11989 107.711 10.4229 117.695C12.7259 127.678 17.4515 137.083 24.2637 145.241C31.0761 153.398 39.8077 160.108 49.837 164.892C59.8662 169.676 70.947 172.415 82.2901 172.917C92.206 173.356 102.11 172.074 111.462 169.156C111.82 169.045 112.161 168.885 112.514 168.76L112.694 168.701L113.115 168.572C121.921 165.774 129.206 157.905 135.743 148.255C139.02 143.418 141.988 138.324 144.821 133.468C147.616 128.678 150.325 124.033 152.979 120.36C155.532 116.825 158.519 113.47 162.104 112.114C164.047 111.378 166.147 111.235 168.277 111.911C170.333 112.564 172.14 113.891 173.748 115.616C176.9 118.996 179.914 124.585 183.032 132.532C186.187 140.569 189.582 151.38 193.347 165.518C193.466 165.966 193.527 166.432 193.671 166.873C195.046 171.071 196.923 173.288 198.684 174.477C200.627 175.788 202.911 176.172 205.344 175.966C207.802 175.758 210.2 174.958 212.051 174.155C212.284 174.054 212.505 173.953 212.714 173.856C213.5 173.488 214.158 172.88 214.942 172.51C214.958 172.503 214.975 172.495 214.991 172.488C233.992 163.905 256.296 149.757 290.539 104.716C307.907 81.8764 320.251 61.9687 327.221 45.5394C328.58 42.3348 329.738 39.2591 330.696 36.3147C333.03 29.1354 324.999 26.2788 319.497 31.4478C308.684 41.6063 297.717 46.5495 288.204 50.8392C285.583 52.0243 283.103 53.1418 280.711 54.3206C268.452 60.3634 260.969 68.0645 258.476 77.1976C256.021 86.2005 258.362 96.953 265.44 109.161C266.215 110.492 266.174 112.158 265.335 113.399C264.496 114.639 263.024 115.219 261.587 114.871C256.553 113.685 250.737 116.22 250.661 121.392C250.66 121.505 250.658 121.618 250.656 121.731C250.503 132.397 250.359 142.475 240.601 152.152C239.143 153.594 236.819 153.492 235.403 151.92C233.992 150.347 234.024 147.904 235.481 146.458C243.056 138.946 243.163 131.588 243.306 121.402C243.388 115.526 243.483 108.868 245.235 101.508C245.565 100.125 246.612 99.0806 247.922 98.7669C249.245 98.4619 250.64 98.9561 251.548 100.052C252.136 100.762 253.111 100.11 252.818 99.2356C249.865 90.4451 249.389 82.2901 251.412 74.8743C254.494 63.5744 263.256 54.2997 277.445 47.3001C279.949 46.0688 282.479 44.9272 285.159 43.7191C300.179 36.9489 317.204 29.2752 332.11 2.45443C332.795 1.21734 334.092 0.509781 335.467 0.616535ZM344.605 57.8851C346.621 57.6682 348.462 59.217 348.719 61.3411C348.801 62.0058 348.892 62.6883 348.987 63.4056C349.502 67.2687 350.143 72.0744 350.178 79.6126C350.281 101.587 340.256 120.949 323.36 131.401C313.862 137.281 296.868 139.737 287.742 141.06C287.592 141.08 287.509 141.247 287.581 141.38C289.412 144.742 292.244 146.855 296.15 147.801C297.451 148.119 298.511 149.144 298.917 150.485C299.327 151.828 299.019 153.278 298.114 154.275C290.404 162.788 277.033 167.726 266.216 170.482C262.77 171.36 259.585 172.014 256.925 172.495C254.934 172.854 252.998 171.439 252.602 169.334C252.206 167.23 253.497 165.236 255.49 164.872C260.396 163.989 269.561 162.01 278.069 158.397C283.276 156.186 283.15 149.067 280.684 143.975C279.928 142.416 279.315 140.723 278.852 138.906C278.323 136.831 279.483 134.743 281.442 134.243C282.374 134.006 284.032 133.764 286.544 133.401C294.56 132.241 311.24 129.825 319.506 124.711C325.011 121.304 342.964 107.971 342.828 79.4359C342.794 72.419 342.192 67.9006 341.71 64.2699C341.611 63.5251 341.517 62.8145 341.432 62.1224C341.171 59.9994 342.597 58.1041 344.605 57.8851Z" fill="#F7D2A1"/>
</svg>
