<svg width="351" height="184" viewBox="0 0 351 184" fill="none" xmlns="http://www.w3.org/2000/svg">
<path d="M335.467 0.682617C336.842 0.789418 338.064 1.69391 338.639 3.02734C348.064 24.9807 334.229 59.8737 296.337 109.702C261.115 156.027 237.892 170.706 218.046 179.668C217.859 179.752 217.668 179.82 217.473 179.87C217.354 179.9 217.238 179.938 217.13 179.994C216.544 180.298 215.825 180.65 214.999 181.009C212.735 181.992 209.516 183.106 205.968 183.406C202.393 183.709 198.279 183.197 194.544 180.676C190.793 178.144 187.899 173.906 186.166 167.68C186.024 167.17 185.968 166.637 185.831 166.126C182.248 152.791 179.054 142.716 176.144 135.301C173.099 127.544 170.496 123.044 168.336 120.728C167.289 119.605 166.516 119.182 166.039 119.03C165.636 118.902 165.25 118.901 164.723 119.101C163.366 119.614 161.476 121.3 158.978 124.759C156.579 128.079 154.062 132.378 151.213 137.263C148.402 142.081 145.309 147.394 141.869 152.472C135.341 162.107 127.098 171.626 116.153 175.424C115.688 175.585 115.244 175.806 114.776 175.956C104.25 179.323 93.0754 180.808 81.8877 180.312C69.345 179.757 57.0928 176.727 46.0029 171.438C34.9128 166.148 25.2576 158.728 17.7246 149.708C10.1916 140.688 4.96553 130.288 2.41895 119.248C-0.127559 108.209 0.0673642 96.8009 2.99023 85.8369C5.91324 74.8727 11.4931 64.621 19.3311 55.8125C27.169 47.0042 37.0732 39.8544 48.3389 34.873C58.3154 30.4618 69.1427 27.8481 80.21 27.1621C80.3794 27.1364 80.5541 27.1231 80.7324 27.124C80.7627 27.1242 80.793 27.1248 80.8232 27.125C80.8352 27.1243 80.8474 27.1237 80.8594 27.123C81.0335 27.1135 81.205 27.1166 81.373 27.1318C88.2265 27.2635 94.9553 28.9445 100.907 32.0439C108.124 35.8019 113.839 41.4589 117.262 48.2285C120.684 54.9981 121.642 62.544 120.003 69.8184C118.364 77.0927 114.209 83.7341 108.115 88.8193C102.022 93.9046 94.2915 97.1814 86 98.1943C77.7086 99.2072 69.2673 97.9061 61.8486 94.4717C54.4299 91.0371 48.4021 85.6394 44.6035 79.0293C41.4854 73.6033 39.9963 67.5811 40.2422 61.5391C40.3325 59.3231 42.3948 57.8164 44.5938 58.1055C46.9047 58.4093 48.4679 60.5764 48.4756 62.9072C48.4899 67.3374 49.6752 71.7243 51.9639 75.707C54.9836 80.9618 59.7753 85.2531 65.6729 87.9834C71.5703 90.7136 78.2809 91.7475 84.8721 90.9424C91.4632 90.1372 97.608 87.5326 102.452 83.4902C107.296 79.4477 110.6 74.1676 111.903 68.3848C113.206 62.602 112.444 56.6032 109.724 51.2217C107.003 45.8402 102.459 41.3428 96.7227 38.3555C92.0212 35.9072 86.7101 34.5727 81.2979 34.4531C81.2295 34.4516 81.1612 34.4526 81.0933 34.4595C81.0561 34.4632 81.0188 34.4665 80.9814 34.4688C70.9001 35.0691 61.0352 37.4389 51.9502 41.4561C41.762 45.961 32.8051 52.4266 25.7168 60.3926C18.6286 68.3584 13.5829 77.6286 10.9395 87.5439C8.29603 97.4595 8.11984 107.777 10.4229 117.761C12.7259 127.744 17.4515 137.149 24.2637 145.307C31.0761 153.464 39.8077 160.174 49.8369 164.958C59.8661 169.742 70.947 172.481 82.29 172.983C92.206 173.422 102.109 172.14 111.462 169.222C111.82 169.111 112.161 168.951 112.514 168.826L112.694 168.768L113.115 168.638C121.921 165.84 129.206 157.971 135.743 148.321C139.02 143.485 141.988 138.391 144.821 133.534C147.615 128.744 150.325 124.099 152.979 120.426C155.532 116.891 158.519 113.536 162.104 112.18C164.047 111.444 166.147 111.301 168.277 111.978C170.333 112.63 172.14 113.957 173.748 115.682C176.9 119.062 179.914 124.651 183.032 132.598C186.187 140.635 189.582 151.446 193.347 165.584C193.466 166.032 193.527 166.498 193.671 166.939C195.046 171.137 196.923 173.354 198.684 174.543C200.626 175.854 202.911 176.238 205.344 176.032C207.802 175.824 210.2 175.024 212.051 174.221C212.283 174.12 212.505 174.019 212.714 173.922C213.5 173.555 214.158 172.946 214.942 172.576C214.958 172.569 214.975 172.561 214.991 172.554C233.992 163.972 256.296 149.823 290.539 104.782C307.907 81.9425 320.251 62.0348 327.221 45.6055C328.58 42.4009 329.738 39.3252 330.696 36.3807C333.03 29.2015 324.999 26.3449 319.497 31.5139C308.684 41.6723 297.717 46.6156 288.204 50.9053C285.583 52.0904 283.103 53.2079 280.711 54.3867C268.452 60.4294 260.969 68.1306 258.476 77.2637C256.021 86.2665 258.362 97.0191 265.44 109.228C266.215 110.558 266.174 112.225 265.335 113.465C264.496 114.705 263.023 115.285 261.587 114.938C256.553 113.751 250.737 116.287 250.661 121.458C250.66 121.571 250.658 121.684 250.656 121.797C250.503 132.463 250.359 142.541 240.601 152.218C239.143 153.66 236.819 153.558 235.403 151.986C233.992 150.413 234.024 147.97 235.48 146.524C243.056 139.012 243.163 131.654 243.306 121.468C243.388 115.592 243.483 108.934 245.235 101.574C245.565 100.191 246.612 99.1467 247.922 98.833C249.245 98.528 250.64 99.0222 251.548 100.118C252.136 100.828 253.111 100.176 252.818 99.3017C249.865 90.5112 249.389 82.3562 251.412 74.9404C254.494 63.6405 263.256 54.3658 277.445 47.3662C279.949 46.1349 282.479 44.9932 285.159 43.7852C300.179 37.015 317.204 29.3412 332.11 2.52051C332.795 1.28342 334.092 0.575864 335.467 0.682617ZM344.604 57.9512C346.621 57.7343 348.462 59.2831 348.719 61.4072C348.801 62.0718 348.892 62.7544 348.987 63.4717C349.502 67.3347 350.143 72.1405 350.178 79.6787C350.281 101.653 340.256 121.015 323.36 131.467C313.862 137.347 296.868 139.804 287.742 141.126C287.592 141.147 287.509 141.313 287.581 141.446C289.412 144.808 292.244 146.921 296.15 147.867C297.451 148.186 298.511 149.211 298.917 150.551C299.327 151.894 299.019 153.344 298.114 154.341C290.403 162.854 277.033 167.792 266.216 170.548C262.77 171.426 259.585 172.08 256.925 172.562C254.934 172.92 252.998 171.505 252.602 169.4C252.205 167.296 253.496 165.302 255.49 164.938C260.396 164.055 269.561 162.076 278.069 158.464C283.276 156.252 283.15 149.133 280.684 144.041C279.928 142.482 279.315 140.789 278.852 138.972C278.323 136.897 279.483 134.809 281.442 134.31C282.374 134.072 284.031 133.83 286.544 133.467C294.56 132.307 311.24 129.891 319.506 124.777C325.011 121.37 342.963 108.037 342.828 79.502C342.794 72.4851 342.192 67.9667 341.71 64.3359C341.611 63.5911 341.517 62.8805 341.432 62.1885C341.171 60.0655 342.597 58.1701 344.604 57.9512Z" fill="url(#paint0_linear_75_458)"/>
<defs>
<linearGradient id="paint0_linear_75_458" x1="350.179" y1="92.078" x2="0.643555" y2="92.078" gradientUnits="userSpaceOnUse">
<stop stop-color="#030954"/>
<stop offset="0.336538" stop-color="#000A96"/>
<stop offset="0.427885" stop-color="#466FD0"/>
<stop offset="0.725962" stop-color="#466FD0"/>
</linearGradient>
</defs>
</svg>
